# xmcd CD database file
#
# Track frame offsets:
#	150
#	17115
#	41167
#	60390
#	82132
#	105219
#	125906
#	147752
#	168601
#	184776
#	205852
#	224598
#	243909
#	264628
#	282000
#
# Disc length: 3982 seconds
#
# Revision: 0
# Processed by: cddbd v1.5.2PL0 Copyright (c) Steve Scherf et al.
# Submitted via: CDex 1.51
#
DISCID=df0f8c0f
DTITLE=Jerry Rivera - mis 30 mejores Canciones CD2
DYEAR=2003
DGENRE=Salsa
TTITLE0=Casi Un Hechizo
TTITLE1=Tal vez
TTITLE2=Una y Mil Veces
TTITLE3=Dime
TTITLE4=Esa Niña
TTITLE5=Nada Sin Ti
TTITLE6=Como Un Milagro
TTITLE7=Deseo Loco
TTITLE8=Lloraré
TTITLE9=Loco De Amor
TTITLE10=Desde Que Tu No Estas
TTITLE11=Te Recordaré
TTITLE12=Digo Tu Nombre
TTITLE13=Cuenta Conmigo
TTITLE14=Magia
EXTD=YEAR: 2003
EXTT0=
EXTT1=
EXTT2=
EXTT3=
EXTT4=
EXTT5=
EXTT6=
EXTT7=
EXTT8=
EXTT9=
EXTT10=
EXTT11=
EXTT12=
EXTT13=
EXTT14=
PLAYORDER=
